<svg xmlns="http://www.w3.org/2000/svg" fill="none" viewBox="0 0 142 142" id="Figma--Streamline-Core" height="142" width="142"><desc>Figma Streamline Icon: https://streamlinehq.com</desc><g id="figma"><path id="Subtract" fill="#c7c8c9" fill-rule="evenodd" d="M45.66314285714285 51.33076857142857c-10.849307142857143 0.16685 -19.59285571428571 9.013652857142857 -19.59285571428571 19.90261857142857 0 10.993234285714284 8.91181857142857 19.905052857142856 19.905052857142856 19.905052857142856h19.90495142857143v-39.807671428571425H45.66314285714285Zm55.837442857142854 0c10.762585714285713 0.2644242857142857 19.40632857142857 9.072278571428571 19.40632857142857 19.898967142857142 0 10.993234285714284 -8.911514285714286 19.90495142857143 -19.90485 19.90495142857143 -10.993234285714284 0 -19.905052857142856 -8.911717142857142 -19.905052857142856 -19.90495142857143 0 -10.826688571428571 8.643844285714286 -19.634542857142854 19.406835714285716 -19.898967142857142h0.9967385714285714Zm2.2527285714285714 -49.521840714285716c9.473428571428572 0 17.1536 7.680009142857142 17.1536 17.15375214285714 0 9.473834285714284 -7.680171428571428 17.153802857142857 -17.1536 17.153802857142857h-2.0894285714285714c-0.2201 -0.004057142857142857 -0.44070714285714285 -0.006085714285714285 -0.6618214285714286 -0.006085714285714285s-0.44182285714285713 0.0020285714285714286 -0.6619228571428571 0.006085714285714285H81.09701142857142V1.808927857142857h22.656302857142855ZM26.070287142857143 18.96268c0 -9.473742999999999 7.68007 -17.15375214285714 17.153802857142857 -17.15375214285714h22.656201428571425V36.11415H45.975339999999996c-0.13845 0 -0.2766971428571428 0.0008114285714285715 -0.4147414285714286 0.0023328571428571426h-2.3365085714285714c-9.473732857142856 0 -17.153802857142857 -7.679968571428571 -17.153802857142857 -17.153802857142857Zm17.153802857142857 87.39836285714286c-9.473732857142856 0 -17.153802857142857 7.680171428571428 -17.153802857142857 17.1536 0 9.474442857142858 7.68007 17.154614285714285 17.153802857142857 17.154614285714285h2.7512499999999998c10.993234285714284 0 19.90495142857143 -8.912528571428572 19.90495142857143 -19.90535714285714v-14.402857142857142H43.22409Z" clip-rule="evenodd" stroke-width="10.1429"></path></g></svg>