<svg xmlns="http://www.w3.org/2000/svg" viewBox="0 0 128 128" id="Git-Alt--Streamline-Font-Awesome" height="128" width="128"><desc>Git Alt Streamline Icon: https://streamlinehq.com</desc><!--! Font Awesome Free 6.5.2 by @fontawesome - https://fontawesome.com License - https://fontawesome.com/license/free (Icons: CC BY 4.0, Fonts: SIL OFL 1.1, Code: MIT License) Copyright 2024 Fonticons, Inc.--><path d="M124.35379999999999 58.414142857142856 69.59997142857142 3.646342857142857c-3.156228571428571 -3.1534285714285715 -8.270514285714285 -3.1534285714285715 -11.426742857142857 0l-11.384771428571428 11.376342857142857 14.425542857142858 14.425571428571427c7.576771428571428 -2.5592 14.750371428571428 4.695571428571428 12.149171428571428 12.230342857142855l13.904742857142857 13.904742857142857c9.584371428571428 -3.3039714285714283 17.130342857142857 8.679971428571427 9.931571428571429 15.873142857142856 -7.417171428571429 7.417171428571429 -19.658742857142855 -0.8036 -15.679942857142857 -10.455142857142858l-12.977971428571427 -12.961171428571427v34.11788571428571c7.084 3.5111999999999997 6.2328 11.717971428571428 2.5424 15.399942857142856 -3.7545142857142855 3.752342857142857 -9.839457142857142 3.752342857142857 -13.593942857142856 0 -4.919599999999999 -4.9279714285714284 -3.0995999999999997 -13.134742857142857 3.1499714285714284 -15.679942857142857V47.43817142857143c-5.823971428571428 -2.3827714285714285 -6.887971428571428 -8.607142857142856 -5.219171428571428 -12.599942857142857l-14.221142857142857 -14.237942857142857L3.646228571428571 58.15934285714286c-3.1549714285714288 3.1556 -3.1549714285714288 8.271142857142857 0 11.426771428571428l54.7706 54.767799999999994c3.1552857142857142 3.153085714285714 8.268657142857142 3.153085714285714 11.423942857142857 0l54.51302857142857 -54.513c3.154942857142857 -3.1556285714285712 3.154942857142857 -8.271171428571428 0 -11.426771428571428Z" fill="#c7c8c9" stroke-width="0.2857"></path></svg>