<svg role="img" viewBox="0 0 128 128" xmlns="http://www.w3.org/2000/svg" id="Javascript--Streamline-Simple-Icons" height="128" width="128"><desc>Javascript Streamline Icon: https://streamlinehq.com</desc><title>JavaScript</title><path d="M0 0h128v128H0V0zm117.51466666666666 97.472c-0.9333333333333332 -5.84 -4.736 -10.746666666666666 -16.016 -15.322666666666667 -3.925333333333333 -1.8399999999999999 -8.288 -3.1199999999999997 -9.584 -6.079999999999999 -0.4853333333333333 -1.76 -0.5599999999999999 -2.7199999999999998 -0.24533333333333332 -3.76 0.7999999999999999 -3.445333333333333 4.88 -4.4799999999999995 8.079999999999998 -3.52 2.08 0.6399999999999999 4 2.2399999999999998 5.205333333333333 4.8 5.514666666666667 -3.6053333333333333 5.514666666666667 -3.6053333333333333 9.36 -6 -1.44 -2.2399999999999998 -2.1546666666666665 -3.205333333333333 -3.125333333333333 -4.16 -3.36 -3.76 -7.834666666666667 -5.68 -15.114666666666666 -5.514666666666667l-3.76 0.4746666666666666c-3.6053333333333333 0.88 -7.04 2.8 -9.12 5.359999999999999 -6.079999999999999 6.885333333333333 -4.325333333333333 18.88533333333333 3.0346666666666664 23.845333333333333 7.279999999999999 5.4399999999999995 17.925333333333334 6.634666666666666 19.285333333333334 11.76 1.2799999999999998 6.239999999999999 -4.64 8.239999999999998 -10.485333333333333 7.52 -4.325333333333333 -0.96 -6.72 -3.125333333333333 -9.36 -7.125333333333334l-9.76 5.605333333333332c1.1199999999999999 2.5599999999999996 2.4 3.674666666666666 4.32 5.914666666666666 9.28 9.365333333333332 32.48 8.885333333333332 36.64533333333333 -5.354666666666667 0.15466666666666667 -0.48 1.2799999999999998 -3.76 0.3946666666666666 -8.799999999999999l0.24533333333333332 0.35733333333333334zm-47.909333333333336 -38.64h-11.989333333333335c0 10.335999999999999 -0.047999999999999994 20.607999999999997 -0.047999999999999994 30.959999999999997 0 6.570666666666666 0.33599999999999997 12.602666666666666 -0.736 14.458666666666666 -1.76 3.674666666666666 -6.293333333333333 3.205333333333333 -8.352 2.5599999999999996 -2.112 -1.0453333333333332 -3.1839999999999997 -2.485333333333333 -4.426666666666666 -4.56 -0.33599999999999997 -0.5599999999999999 -0.5866666666666667 -1.0453333333333332 -0.6773333333333333 -1.0453333333333332l-9.733333333333333 6c1.6266666666666665 3.36 4 6.250666666666666 7.061333333333334 8.090666666666666 4.56 2.7199999999999998 10.687999999999999 3.6 17.104 2.16 4.176 -1.2053333333333334 7.776 -3.685333333333333 9.658666666666665 -7.525333333333333 2.7199999999999998 -4.96 2.144 -11.04 2.1173333333333333 -17.845333333333333 0.064 -10.954666666666665 0 -21.914666666666665 0 -32.95466666666667l0.021333333333333333 -0.29866666666666664z" fill="#c7c8c9" stroke-width="5.3333"></path></svg>