<svg xmlns="http://www.w3.org/2000/svg" viewBox="0 0 128 128" id="Node-Js--Streamline-Font-Awesome" height="128" width="128"><desc>Node Js Streamline Icon: https://streamlinehq.com</desc><!--! Font Awesome Free 6.5.2 by @fontawesome - https://fontawesome.com License - https://fontawesome.com/license/free (Icons: CC BY 4.0, Fonts: SIL OFL 1.1, Code: MIT License) Copyright 2024 Fonticons, Inc.--><path d="M63.975114285714284 126.71999999999998c-1.6677142857142855 0 -3.3603428571428573 -0.4480571428571428 -4.828914285714285 -1.294342857142857l-15.357971428571426 -9.085342857142857c-2.2900285714285715 -1.2943714285714287 -1.1699142857142855 -1.7424 -0.4231714285714286 -1.9913142857142856 3.0616571428571424 -1.070342857142857 3.6839142857142857 -1.2943714285714287 6.944685714285714 -3.1611999999999996 0.3484857142857143 -0.19914285714285712 0.7965428571428571 -0.12445714285714285 1.145 0.09954285714285713l11.798514285714285 6.994485714285713c0.42314285714285715 0.2489142857142857 1.020542857142857 0.2489142857142857 1.4187999999999998 0l45.97434285714286 -26.5342c0.4231714285714286 -0.2489142857142857 0.6969714285714286 -0.746742857142857 0.6969714285714286 -1.2445714285714284V37.43468571428571c0 -0.5227142857142857 -0.2738 -0.9956571428571428 -0.7218571428571428 -1.2694571428571428L64.67205714285714 9.655942857142856c-0.42314285714285715 -0.2489142857142857 -0.9956571428571428 -0.2489142857142857 -1.4187999999999998 0L17.328714285714284 36.19011428571429c-0.4480571428571428 0.2489142857142857 -0.7218571428571428 0.746742857142857 -0.7218571428571428 1.2694857142857143v53.04348571428571c0 0.4978285714285714 0.2738 0.9956285714285714 0.7218571428571428 1.2196571428571428l12.595028571428571 7.268285714285714c6.845114285714285 3.410114285714285 11.026857142857143 -0.5973999999999999 11.026857142857143 -4.654685714285714v-52.371428571428574c0 -0.746742857142857 0.5973999999999999 -1.3192285714285714 1.344142857142857 -1.3192285714285714h5.824571428571428c0.7218571428571428 0 1.344142857142857 0.5724857142857142 1.344142857142857 1.3192285714285714v52.39631428571428c0 9.110228571428571 -4.978285714285714 14.33742857142857 -13.615571428571428 14.33742857142857 -2.6633714285714283 0 -4.754257142857143 0 -10.578828571428572 -2.8874l-12.04742857142857 -6.944685714285714c-2.986971428571428 -1.7175142857142858 -4.828914285714285 -4.928485714285714 -4.828914285714285 -8.388399999999999V37.43468571428571c0 -3.435 1.8419428571428569 -6.670885714285713 4.828914285714285 -8.388371428571428l45.924571428571426 -26.5342c2.912285714285714 -1.6428285714285713 6.770428571428571 -1.6428285714285713 9.65782857142857 0l45.97434285714286 26.559085714285715c2.986971428571428 1.7175142857142858 4.828914285714285 4.928485714285714 4.828914285714285 8.388399999999999v53.04348571428571c0 3.435 -1.8419428571428569 6.645971428571428 -4.828914285714285 8.388371428571428l-45.97434285714286 26.5342c-1.4686 0.8462857142857143 -3.1363142857142856 1.294342857142857 -4.828914285714285 1.294342857142857Zm37.113 -52.29674285714285c0 -9.931657142857143 -6.720657142857143 -12.570142857142857 -20.834057142857144 -14.437 -14.287628571428572 -1.8917428571428572 -15.731342857142856 -2.8624857142857145 -15.731342857142856 -6.1979428571428565 0 -2.762942857142857 1.2196857142857143 -6.446857142857143 11.798514285714285 -6.446857142857143 9.43382857142857 0 12.9186 2.041085714285714 14.362314285714284 8.413285714285713 0.12445714285714285 0.5973714285714286 0.6720571428571428 1.0454285714285714 1.294342857142857 1.0454285714285714h5.973942857142856c0.3733714285714285 0 0.7218285714285715 -0.14934285714285714 0.9707428571428571 -0.42314285714285715s0.3733714285714285 -0.6471714285714285 0.3484857142857143 -1.020542857142857c-0.9209714285714284 -10.977114285714284 -8.214142857142857 -16.07982857142857 -22.94982857142857 -16.07982857142857 -13.117742857142858 0 -20.93362857142857 5.525885714285714 -20.93362857142857 14.810342857142857 0 10.056114285714285 7.7909999999999995 12.843942857142856 20.361114285714287 14.088514285714286 15.059285714285714 1.4686 16.22917142857143 3.6839142857142857 16.22917142857143 6.645999999999999 0 5.127628571428571 -4.131971428571428 7.318057142857143 -13.814685714285712 7.318057142857143 -12.171885714285713 0 -14.835257142857142 -3.0616285714285714 -15.731342857142856 -9.110228571428571 -0.09957142857142856 -0.6471714285714285 -0.6471714285714285 -1.1201142857142856 -1.3192571428571427 -1.1201142857142856h-5.949028571428571c-0.746742857142857 0 -1.3192285714285714 0.5973999999999999 -1.3192285714285714 1.3192285714285714 0 7.741228571428572 4.206628571428571 16.975914285714286 24.343742857142857 16.975914285714286 14.536542857142855 -0.024885714285714282 22.90005714285714 -5.7748 22.90005714285714 -15.781114285714285Z" fill="#c7c8c9" stroke-width="0.2857"></path></svg>