<svg width="192" height="171" viewBox="0 0 192 171" fill="none" xmlns="http://www.w3.org/2000/svg">
<path d="M96.0038 102.922C105.896 102.922 113.916 94.9029 113.916 85.0104C113.916 75.1179 105.896 67.0984 96.0038 67.0984C86.1113 67.0984 78.0918 75.1179 78.0918 85.0104C78.0918 94.9029 86.1113 102.922 96.0038 102.922Z" fill="#C6C7C8"/>
<path fill-rule="evenodd" clip-rule="evenodd" d="M97.3198 47.2544C127.86 47.4624 161.18 49.6904 184.052 70.0864C184.724 70.6864 185.372 71.3104 186.004 71.9544C191.4 77.4544 194.22 86.3344 189.864 93.6424C180.928 108.646 160.944 115.19 141.596 119.218C112.66 125.242 82.4038 125.29 53.4798 119.986C36.8358 116.93 19.8158 111.574 7.98778 100.37C3.38378 96.0104 -0.552221 90.2744 0.0637787 83.8904C1.06378 73.5624 10.9718 66.9344 19.3118 62.4464C42.4758 49.9824 70.6998 47.1944 97.3198 47.2544ZM95.1038 51.9464C66.2078 52.1424 34.9318 53.9864 12.6198 72.4624C11.8398 73.1064 11.0878 73.7824 10.3638 74.4904C9.89578 74.9464 9.44378 75.4224 9.00778 75.9104C5.09178 80.3104 3.74378 87.3784 7.43978 92.6624C11.1598 97.9784 16.8078 101.814 22.6238 104.942C44.3758 116.638 70.0798 118.714 95.1398 118.802C120.512 118.894 146.676 116.582 169.088 104.994C178.016 100.374 188.064 93.5904 187.708 84.8544C187.38 76.8384 179.564 71.8864 173.712 68.3504C172.128 67.3944 170.5 66.5104 168.848 65.6784C146.6 54.5304 120.528 51.8904 95.1038 51.9464Z" fill="#C6C7C8"/>
<path fill-rule="evenodd" clip-rule="evenodd" d="M136.46 0.0024157C147.632 0.286416 153.42 13.7184 154.184 23.6384C154.336 25.6104 154.392 27.5904 154.368 29.5704C154.344 31.7144 154.228 33.8584 154.04 35.9944C151.684 62.4424 139.608 87.6304 125.388 110.89C111.48 133.642 94.5198 156.33 71.4478 166.874C63.8198 170.362 54.7478 172.514 47.9958 168.622C38.7398 163.29 37.7278 150.818 37.8998 141.358C37.9438 139.034 38.0958 136.71 38.3358 134.394C41.8918 100.154 59.2478 67.7184 80.9678 39.7744C93.6398 23.4704 108.716 7.29841 127.496 1.44241C130.452 0.518414 132.8 -0.0415843 136.46 0.0024157ZM135.924 4.69042C122.808 4.89842 111.032 14.6184 100.604 24.7184C73.1878 51.2664 52.9838 86.5744 44.8558 123.602C44.2278 126.47 43.6998 129.358 43.3118 132.266C43.0118 134.518 42.7918 136.782 42.6758 139.054C42.5838 140.862 42.5518 142.674 42.6078 144.486C42.6478 145.902 42.7398 147.318 42.8958 148.726C43.0118 149.802 43.1678 150.874 43.3638 151.938C43.5118 152.726 43.6838 153.51 43.8838 154.29C44.0478 154.922 44.2318 155.55 44.4398 156.174C46.0758 161.106 50.2918 165.818 55.9518 165.974C69.1558 166.334 81.5878 156.706 92.3358 146.242C111.204 127.878 125.264 104.802 136.248 80.5464C145.112 60.9624 153.22 39.6744 148.692 18.1184C148.52 17.3024 148.32 16.4944 148.092 15.6944C147.904 15.0424 147.692 14.3984 147.46 13.7624C145.7 8.96641 141.56 4.67842 135.924 4.69042Z" fill="#C6C7C8"/>
<path fill-rule="evenodd" clip-rule="evenodd" d="M56.4358 0.178395C70.6918 0.454395 83.4958 10.1304 94.8638 20.9664C115.608 40.7384 130.908 65.8904 142.516 92.3624C151.508 112.87 159.78 135.89 152.428 157.53C150.112 164.35 144.252 170.59 136.44 170.75C122.116 171.038 108.84 160.622 97.3198 149.41C68.4198 121.274 46.9638 84.1304 39.6118 44.7384C39.0838 41.9224 38.6638 39.0824 38.3758 36.2304C38.1398 33.9024 37.9918 31.5624 37.9518 29.2224C37.9198 27.3344 37.9598 25.4464 38.0918 23.5664C38.1798 22.3104 38.3078 21.0624 38.4798 19.8184C38.6438 18.6504 38.8518 17.4864 39.1118 16.3344C39.2838 15.5704 39.4758 14.8144 39.6958 14.0624C41.8518 6.6904 47.4598 0.122395 56.4358 0.178395ZM55.8958 4.8704C47.5478 5.0544 43.7278 14.8984 42.9598 21.8064C42.8038 23.2224 42.7078 24.6504 42.6638 26.0784C42.6078 27.9024 42.6318 29.7304 42.7238 31.5544C44.0358 57.9504 55.8358 83.4704 70.0758 106.838C83.4838 128.838 99.6758 150.75 121.948 162.014C128.38 165.266 136.196 167.822 141.752 164.75C148.72 160.894 149.576 151.706 149.948 144.858C150.048 142.994 150.06 141.122 150 139.254C149.928 136.91 149.744 134.57 149.468 132.242C146.9 110.494 137.268 89.9144 126.204 70.4664C112.436 46.2744 95.5678 22.1624 71.6958 9.5664C66.7518 6.9584 61.3998 4.8264 55.8958 4.8704Z" fill="#C6C7C8"/>
</svg>
